<svg xmlns="http://www.w3.org/2000/svg" viewBox="0 0 500 500"><g id="freepik--Floor--inject-38"><path id="freepik--floor--inject-38" d="M76,445.47c-95.7-55.25-95.7-144.83,0-200.08s250.85-55.25,346.55,0,95.7,144.83,0,200.08S171.71,500.73,76,445.47Z" style="fill:#f5f5f5"></path></g><g id="freepik--Character--inject-38"><g id="freepik--character--inject-38"><g id="freepik--Bottom--inject-38"><path d="M372.77,366.8c.15-4.92-.7-44.89-.7-44.89l19.5,12.14c-3.1,21.93-5.64,32.26-6,36.06h0a5,5,0,0,0-.14.77c-.06,4.34-5.28,6.63-9.35,9.49a77.27,77.27,0,0,1-11,6.63c-3,1.37-8.93,1.43-9.65-.36,5-3.5,10.71-7.32,14.67-11.34C372,373.38,372.64,371.37,372.77,366.8Z" style="fill:#ffa8a7"></path><path d="M347,391.23c-.25,0-.66,2.62.7,3.75,1.57,1.31,6.19,3.47,12.34,2.79s9.49-2.45,12-4.37,5.95-4.62,8.73-5.17c2.59-.52,5.4-1.59,6.24-2.34s.75-4.09.75-4.09Z" style="fill:#263238"></path><path d="M385.77,368.94s.42,0,.57.74.35,3.61.74,5.13a25.51,25.51,0,0,1,.51,8.14c-.35,1.71-4.57,2.86-7.27,3.8a34.82,34.82,0,0,0-8.77,5.11,26.17,26.17,0,0,1-13,4.42c-6.11,0-10.05-1.58-11.25-3.66-1.48-2.59-.28-4.06,6.78-7.06,1.33-.57,6-3.13,7.63-4.06a23.3,23.3,0,0,0,9.92-10.43,2.54,2.54,0,0,1,1-1.37,2.36,2.36,0,0,1,1.37-.11,17.67,17.67,0,0,1,4.12.88c.94.43,2.27.94,2.23,2.08a3.63,3.63,0,0,1-.27,1.16c-.09.23-.16.54,0,.68s.48,0,.66-.17a17.67,17.67,0,0,0,1.92-2.13,6.57,6.57,0,0,1,1.12-1,12.13,12.13,0,0,0,1.21-.73A2.27,2.27,0,0,0,385.77,368.94Z" style="fill:#37474f"></path><path d="M352.94,386.05c8.84.67,11.56,5.85,11.9,9.05a21.73,21.73,0,0,1-6.29,1.18c-6.11,0-10.3-1.58-11.5-3.66C345.66,390.18,346.65,388.24,352.94,386.05Z" style="fill:#fafafa"></path><path d="M366.2,386.27a.46.46,0,0,0,.27-.09.39.39,0,0,0,.07-.57,10.69,10.69,0,0,0-8-3.06.41.41,0,0,0-.39.44.42.42,0,0,0,.47.37,9.9,9.9,0,0,1,7.2,2.76A.45.45,0,0,0,366.2,386.27Z" style="fill:#f0f0f0"></path><path d="M370,384.21a.46.46,0,0,0,.27-.09.39.39,0,0,0,.07-.57,10.69,10.69,0,0,0-8-3.06.41.41,0,1,0,.08.81,10,10,0,0,1,7.21,2.76A.41.41,0,0,0,370,384.21Z" style="fill:#f0f0f0"></path><path d="M373.58,381.85a.41.41,0,0,0,.28-.09.4.4,0,0,0,.07-.57,10.72,10.72,0,0,0-8-3.06.41.41,0,0,0-.38.45.42.42,0,0,0,.47.36,9.9,9.9,0,0,1,7.2,2.76A.43.43,0,0,0,373.58,381.85Z" style="fill:#f0f0f0"></path><path d="M377.07,379.49a.45.45,0,0,0,.27-.08.39.39,0,0,0,.07-.57c-1.67-2-5.48-3.41-8.69-3.11a.41.41,0,0,0-.39.44.43.43,0,0,0,.47.37c2.89-.27,6.45,1,7.93,2.8A.45.45,0,0,0,377.07,379.49Z" style="fill:#f0f0f0"></path><path d="M414.25,345.55l18.68-2.09c1,11.82.38,25.11,1.24,36.22.16,2.09,1.78,16.19,1.4,20.56-.56,6.56-8.75,6.46-9.59,2.64s-2.87-20.47-3.08-22.17c-.68-7.11-4.25-18.67-7.46-31.24C415.29,348.85,414.4,346.16,414.25,345.55Z" style="fill:#ffa8a7"></path><path d="M423.22,405.85c.23,3.81.86,6.33,2.28,8.56s4.13,2.93,6.85,2.28,6.23-2.4,7-5.68a19.8,19.8,0,0,0,0-9.06Z" style="fill:#263238"></path><path d="M434.07,378.32c1.13.08,1.46,5.19,2.11,10.3.69,5.48,2.42,7.75,3,12.24.71,5.13.43,7.43-1.48,10.53s-8.64,6.15-12,1.7c-2.71-3.62-2.82-7.64-2.57-12.77a108.65,108.65,0,0,0-.36-13c-.22-3.85-1.12-7.72-.15-8.15.08.56.15,1.28.23,1.83s.18,2.51.8,2.53a7.79,7.79,0,0,0,0-1.45,1.65,1.65,0,0,1,.31-1.24,2.14,2.14,0,0,1,1.24-.52c1.11-.21,3.45-.3,4.58-.4.56-.05,1.12-.07,1.68-.07a4.93,4.93,0,0,1,1.43.19,1,1,0,0,1,.6.53,1.4,1.4,0,0,1,.06.58,4.23,4.23,0,0,0,.14,1.06c0,.15.16.33.32.3s.18-.19.18-.31c0-.62-.08-1.07-.11-1.79,0-.34-.07-.79-.08-1.13S434.1,378.65,434.07,378.32Z" style="fill:#37474f"></path><path d="M439.53,403.83c.2,3.19,0,5.37-1.48,7.8-1.91,3.11-9.19,6.16-12.51,1.72-1.65-2.21-2.09-4.83-2.32-7.5C425.21,402.43,436.4,400.92,439.53,403.83Z" style="fill:#fafafa"></path><path d="M426.1,400.27a.37.37,0,0,0,.14,0,17.29,17.29,0,0,1,9.7-.94.43.43,0,0,0,.5-.3.4.4,0,0,0-.32-.47,18,18,0,0,0-10.24,1,.39.39,0,0,0-.2.53A.43.43,0,0,0,426.1,400.27Z" style="fill:#f0f0f0"></path><path d="M435.66,395.46a.41.41,0,0,0,.36-.26.4.4,0,0,0-.26-.5c-5-1.61-10,.81-10.23.91a.38.38,0,0,0-.18.53.44.44,0,0,0,.56.17s4.89-2.37,9.58-.87A.33.33,0,0,0,435.66,395.46Z" style="fill:#f0f0f0"></path><path d="M435.37,391.86a.42.42,0,0,0,.35-.26.39.39,0,0,0-.25-.51A13.54,13.54,0,0,0,425,392a.38.38,0,0,0-.14.54.44.44,0,0,0,.57.13,12.9,12.9,0,0,1,9.72-.82A.38.38,0,0,0,435.37,391.86Z" style="fill:#f0f0f0"></path><path d="M435,387.8a.42.42,0,0,0,.35-.25.4.4,0,0,0-.24-.51c-5.2-1.84-10.3.88-10.51,1a.38.38,0,0,0-.15.54.42.42,0,0,0,.56.15s5-2.65,9.8-.94A.43.43,0,0,0,435,387.8Z" style="fill:#ebebeb"></path><path d="M418.87,213.54a8.91,8.91,0,0,0,1.8,4.31c4.95,6.94,8.81,13.61,9.21,26.2,1,31.14.22,63.4.22,63.4.21,2.74,2.54,7.61,3.6,21.84.93,12.45.6,29.51.6,29.51s-9.05,4.24-16.82,1.26c-3.09-10.12-9.53-36.39-12.9-49.95-3.07-12.3-5.1-30.4-5.1-30.4l-5.39,25.09a72.76,72.76,0,0,1-.2,16.21c-1,8.34-4.82,32.22-4.82,32.22s-9.94,2.92-16.62-1.76c0,0-1.68-41.61-1.75-51.69-.13-18.76,0-57.15,5.76-81.11a52.18,52.18,0,0,0,.37-5.58C383.37,218.55,410.09,219.38,418.87,213.54Z" style="fill:#37474f"></path><path d="M408.45,222.35a.36.36,0,0,1,.44.26c.36,1.45.64,2.75.91,4,1,4.55,1.66,7.84,5.11,11.37a12.07,12.07,0,0,0,8.66,3.44c-1.48-9.32-4.63-16.76-9.65-22.9a.33.33,0,0,1,.07-.48.37.37,0,0,1,.51.06c5.16,6.32,8.37,14,9.85,23.56,0,0,0,0,0,.05v0a86.93,86.93,0,0,1,.95,11.57c.32,17.51.8,44,1.07,50.93a50.81,50.81,0,0,0,2,11c.92,3.52,1.95,7.52,2.87,13,2,11.83,1,31.26,1,31.46a.35.35,0,0,1-.36.33h0a.35.35,0,0,1-.35-.36c0-.19,1-19.56-.95-31.32-.92-5.44-1.95-9.42-2.86-12.93a50.57,50.57,0,0,1-2.05-11.18c-.27-7-.75-33.43-1.08-50.94a85.65,85.65,0,0,0-.89-11.21h-.38a12.6,12.6,0,0,1-8.93-3.67c-3.58-3.67-4.3-7-5.29-11.71-.27-1.25-.54-2.55-.9-4A.35.35,0,0,1,408.45,222.35Z" style="fill:#455a64"></path><path d="M434.35,355c-2.66,2.5-13.8,3.83-17.88,1.63l1.71,6.67s2.65,1.65,8.57,1.11c6.87-.62,7.6-2.81,7.6-2.81Z" style="fill:#455a64"></path><path d="M389.65,349.6c-3.53,1.17-13.51.45-17.36-1.94l.17,5.57s2.16,2.08,8.07,2.71,8.32-1,8.32-1Z" style="fill:#455a64"></path><path d="M399.48,279.71,395.61,249a19.41,19.41,0,0,1-15.52-7.49s-.26,7.69,12.37,11.22L397.09,281l-3,23.76Z" style="fill:#263238"></path></g><g id="freepik--Top--inject-38"><path id="freepik--Hair--inject-38" d="M377.17,143.13v-7.42c-7.08-15.5,5.26-23.17,21.95-23.17h0c12.27,0,22.48,8.84,22.48,21v72.28H377.17Z" style="fill:#455a64"></path><g id="freepik--Arm--inject-38"><path d="M375.47,168.74c-3.66,4.45-15.07,22.25-18.06,27.55L340.92,181.1c-1.31-1.94-1-5.75-3.22-9.55-2.44-4.21-1-8.06-3-7.67a2.91,2.91,0,0,0-1.94,2.72c-.15,2.31.72,5.3-.18,5.05-1.33-.58-2.24-2.2-3.89-4.64-.69-1-2.19-5-3-6.75a1.51,1.51,0,0,0-2.67-.37c-.3.51-.56,1.72-.85,2.2a5,5,0,0,1-1.12,1,5.45,5.45,0,0,0-1.16.93c-.83,1.1-.23,2.43-.61,3.65a10.7,10.7,0,0,0,.95,7.48c.48,1,.94,2.13,1.45,3.14a21.6,21.6,0,0,0,4.47,5.61c1.55,1.5,3.48,2.4,5,4s5.68,7.22,8.86,11.22c5.28,6.63,9.9,12.75,11.63,14.05,4.26,3.21,8.36,4,13.7-1.36,6.41-6.4,18.67-23,18.67-23l4.16-23.84S379.84,163.42,375.47,168.74Z" style="fill:#ffa8a7"></path><path d="M388.68,164.9c-5.14-1.17-9.61-.52-13.14,2.93s-13.8,20.8-15.25,22.3-2.72,2.1-3,3.47a2.2,2.2,0,0,0,.47,2c2.41.56,9.17,13.47,6,17.45l-1.39,1a2.58,2.58,0,0,0,3.29.24c1.87-1.22,4.27-5,6.94-8.29s14.16-16.61,14.16-16.61Z" style="fill:#C53F3F"></path><path d="M357.8,195.61l-1,.16s3,3.75,3.39,10.76c.22,3.85-.69,8.22-1.88,9.18,0,0,1.11.51,3.09-.66a23.86,23.86,0,0,0,3.07-2.1,13.09,13.09,0,0,0-.33-9.25C362.13,198.36,359.68,196.32,357.8,195.61Z" style="fill:#37474f"></path></g><path d="M404.56,159.35l14.05,4.37c2.41.83,11.53,6.39,8.34,20.11-1.05,4.54-2.48,10.91-3.78,17.27-1,4.86,2.65,14.23,5.59,29.14,0,0-12.06,9.58-36,6.88-18.27-2.07-20.25-8.91-20.25-8.91.51-17,2-23.58,2-30a15.56,15.56,0,0,1-2.79-9c-.12-6.06,1.48-9.32,6.91-16.2a117.48,117.48,0,0,1,10-11.08Z" style="fill:#fafafa"></path><path d="M378.58,180.5c-4.23,9.63-1.37,64.53-1.75,60.42,0,0-7.87-3-8.61-5.68,0-9.89,1.83-29.75,1.94-36.54.13-7.81,0-13.46,2.57-18.25s12.06-16.56,15.84-18.6C384.67,165.24,380.18,174.73,378.58,180.5Z" style="fill:#C53F3F"></path><path d="M378.58,180.5c-4.23,9.63-1.37,64.53-1.75,60.42,0,0-7.87-3-8.61-5.68,0-9.89,1.83-29.75,1.94-36.54.13-7.81,0-13.46,2.57-18.25s12.06-16.56,15.84-18.6C384.67,165.24,380.18,174.73,378.58,180.5Z" style="opacity:0.2"></path><path d="M394,162.4c-2.66,1.83-14.56,10-16.93,25.93,0-7,2.65-15.62,5.16-19.7,3.05-5,7.12-9.61,11.67-11Z" style="fill:#37474f"></path><path d="M409.94,159.51a14.54,14.54,0,0,1,0,3.2c-.13,3-4.85,25.54-4.93,36.36a350.66,350.66,0,0,0,2.62,43.53s17.44,1.58,23.86-7.09a122.31,122.31,0,0,1-5.91-22.72c-1.28-7.81,3.92-26.9,2.57-38.2-.56-4.72-2.35-9.44-5.89-10.55-2.92-.91-5.47-1.66-5.47-1.66Z" style="fill:#C53F3F"></path><path d="M409.94,159.51a14.54,14.54,0,0,1,0,3.2c-.13,3-4.85,25.54-4.93,36.36a350.66,350.66,0,0,0,2.62,43.53s17.44,1.58,23.86-7.09a122.31,122.31,0,0,1-5.91-22.72c-1.28-7.81,3.92-26.9,2.57-38.2-.56-4.72-2.35-9.44-5.89-10.55-2.92-.91-5.47-1.66-5.47-1.66Z" style="opacity:0.2"></path><path d="M382.33,124.17c-1.18,2.38-4,6-3.56,19.22.34,10.34,3.94,12.6,7.33,13.92,1.67.64,4.22.63,7.77.25l.09,4.84s-6.44,5.94-4.4,17.87c20-8.35,20.26-18.52,20.26-18.52l.55-16.16c.65,1.06,3.82,2.48,6.31-.7,2.94-3.75,2.28-8.22-.33-9.87s-5.79-.08-7,3c-2.81,1.17-5.05-1.38-4.87-12.26C398.12,122.4,389.49,120.34,382.33,124.17Z" style="fill:#ffa8a7"></path><path d="M410.07,154.49c1.33-.06,1.63,2.68,3.4,4.69a25.57,25.57,0,0,0,3.32,3.2c-1.63,9.93-9.45,22.31-11.68,34-.09-9.44,2.45-24.17,4.85-38.59Z" style="fill:#37474f"></path><path d="M382.26,121c-1.22,4.77.44,12.57,7.27,14.94-1.49-3-1.44-8.63-1.44-8.63s3.82,12.37,18.66,9l.59-12.49C400.59,119.11,390.14,115.64,382.26,121Z" style="fill:#455a64"></path><path d="M415.12,143.46a1.48,1.48,0,1,1-1.68-1.25A1.48,1.48,0,0,1,415.12,143.46Z" style="fill:#C53F3F"></path><path d="M393.87,157.56c8.7-1.88,13.58-5.41,14.47-8.93,0,0-.55,4.6-3,6.63-3.42,2.85-11.42,4.7-11.42,4.7Z" style="fill:#f28f8f"></path><path d="M389.27,148.46l6.06-2.24a3.07,3.07,0,0,1-1.78,4.12A3.42,3.42,0,0,1,389.27,148.46Z" style="fill:#b16668"></path><path d="M392.17,150.52a3.44,3.44,0,0,0,1.38-.18,3.05,3.05,0,0,0,2-2.6A3.71,3.71,0,0,0,392.17,150.52Z" style="fill:#f28f8f"></path><path d="M397.37,138.05a1.76,1.76,0,1,1-1.76-1.75A1.75,1.75,0,0,1,397.37,138.05Z" style="fill:#263238"></path><path d="M385,137.45a1.76,1.76,0,1,1-1.76-1.74A1.75,1.75,0,0,1,385,137.45Z" style="fill:#263238"></path><polygon points="390.75 134.17 389.81 145.95 384.21 143.73 390.75 134.17" style="fill:#f28f8f"></polygon><path d="M380.46,134.57l4-1.4a2,2,0,0,0-2.65-1.34A2.22,2.22,0,0,0,380.46,134.57Z" style="fill:#263238"></path><path d="M399,135.17l-4-1.71a2.09,2.09,0,0,1,2.78-1.16A2.24,2.24,0,0,1,399,135.17Z" style="fill:#263238"></path><g id="freepik--arm--inject-38"><path d="M432.35,249.84c2.85.81,6.5-2.73,7.5-4s-.29-4.16-.89-6.63,0-6.66-3.06-5.49S426.41,243.18,432.35,249.84Z" style="fill:#f28f8f"></path><path d="M422.82,164.67c9.24,1.93,10.16,1.65,14.52,10.43,5.09,10.22,12.29,26.92,14.11,30.8s3.57,6.75-1.31,12.75c-4.37,5.35-17.24,20.75-19.15,23-1.69,1.95.2,7.7,6,6.86,0,0-4.42,3.91-6.84,3.48-2.1-.38-5.39-2.21-8.42-8.56-1.9-4-.31-7.16,2.59-11.62,3.47-5.33,10.95-20.19,10.95-20.19l-13.64-26.29S416.06,171.72,422.82,164.67Z" style="fill:#ffa8a7"></path><path d="M422.26,164c2.27.57,6.2,1,8.14,1.85s3.49,1.58,6.44,7.11,11.75,23.34,12.89,25.52,3.5,4.78,3.58,6.53a2.05,2.05,0,0,1-1.24,2.18l-.62-1.33s-3.09-2.2-8.39-.07a18.11,18.11,0,0,0-7.78,5.75l-.77,1.51a2.16,2.16,0,0,1-2.4-2.19c-.28-2.49-1.06-4.5-3.35-8.64s-6.63-13-8.17-16.09S415.67,171.75,422.26,164Z" style="fill:#C53F3F"></path><path d="M435.28,211.58l-.77,1.51A27,27,0,0,1,447,208.83c5.36-.42,6.25,1.69,6.25,1.69s.17-1.92-1.76-4.62C448.43,202.87,439.08,205.05,435.28,211.58Z" style="fill:#37474f"></path></g></g><g id="freepik--Pencil--inject-38"><path d="M327.84,361.4,311,395.55a1.17,1.17,0,0,1-2.2-.28l-7.57-37.52Z" style="fill:#ffa8a7"></path><path d="M308.76,395.27a1.17,1.17,0,0,0,2.2.28l3.29-6.66h0a6.51,6.51,0,0,1-6.62-1.21l-.49-.43Z" style="fill:#C53F3F"></path><path d="M308.76,395.27a1.17,1.17,0,0,0,2.2.28l3.29-6.66h0a6.51,6.51,0,0,1-6.62-1.21l-.49-.43Z" style="opacity:0.2"></path><path d="M330.62,132.9l-.46,3.49-.56,4.21L301.18,357.75a17.12,17.12,0,0,0,10.57,6.66c6.37,1.48,13.26.21,16.08-3l28.39-217.06,1-8.06C356.3,141.46,329.71,138.1,330.62,132.9Z" style="fill:#C53F3F"></path><path d="M330.62,132.9l-.46,3.49-.56,4.21L301.18,357.75a17.12,17.12,0,0,0,10.57,6.66c6.37,1.48,13.26.21,16.08-3l28.39-217.06,1-8.06C356.3,141.46,329.71,138.1,330.62,132.9Z" style="fill:#fff;opacity:0.5"></path><path d="M328.84,146.18l-1,7.8c-.37,2.26,4.3,4.33,9.84,5.54,7.35,1.64,16.36.74,16.86-2.24l.75-5.75.23-2.06c-.49,3-9.51,3.89-16.86,2.25-5.31-1.17-9.83-3.15-9.83-5.29v0A.46.46,0,0,1,328.84,146.18Z" style="fill:#ebebeb"></path><path d="M328.61,148.13c-.87,5.23,25.82,8.52,26.68,3.29l1-7.8c-.86,5.22-27.54,1.94-26.68-3.29Z" style="fill:#C53F3F"></path><path d="M330.62,132.9l-1,7.7c-.89,5.13,24.83,8.51,26.62,3.74a.89.89,0,0,0,.09-.29l1-7.77C356.3,141.46,329.71,138.1,330.62,132.9Z" style="fill:#ebebeb"></path><path d="M356.22,144.34l1-8.06c-.43,2.34-6.1,3.41-12.17,2.87L315.58,365,311,395.55l16.88-34.15h0Z" style="opacity:0.1"></path><path d="M361.63,102.93a2.44,2.44,0,0,0,.06-.26c.44-3.39-5.18-6.89-12.55-7.81S335.48,95.92,335,99.3h0l-4.41,33.59c-.38,2.23,4.23,4.3,9.72,5.54,7.34,1.66,16.39.81,16.94-2.16,0,0,0,0,0,0l4.3-32.81c0-.15,0-.29,0-.44Z" style="fill:#f28f8f"></path><path d="M350.72,95.1l-5.62,44.05c6,.49,11.74-.53,12.17-2.87,0,0,0,0,0,0l4.3-32.81c0-.15,0-.29,0-.44v-.07a2.44,2.44,0,0,0,.06-.26C362.1,99.53,357.29,96.3,350.72,95.1Z" style="opacity:0.1"></path><path d="M361.69,102.67c-.43,3.39-6.75,5.38-14.11,4.46s-13-4.43-12.56-7.81,6.76-5.39,14.12-4.46S362.13,99.28,361.69,102.67Z" style="fill:#ffa8a7"></path></g></g></g></svg>